<svg xmlns="http://www.w3.org/2000/svg" width="340.297" height="89.007"><path d="M3.454 38.509h3.954v-15.25h18.969v-3.6H7.408v-12.5h21.221v-3.65H3.454v35zm32.182 0h3.854v-10.3c0-7.8 4.604-11.85 10.26-11.85h.3v-4.15c-4.905-.2-8.659 2.9-10.561 7.2v-6.75h-3.854v25.85zm21.472-11.35h20.521c.05-.6.05-1 .05-1.35 0-7.6-4.404-13.699-12.062-13.699-7.157 0-12.412 6-12.412 13.5 0 8.05 5.806 13.5 12.913 13.5 4.905 0 8.058-1.95 10.661-4.85l-2.402-2.15c-2.102 2.2-4.604 3.65-8.158 3.65-4.556-.001-8.56-3.151-9.111-8.601zm0-3.1c.55-5 3.954-8.7 8.408-8.7 5.105 0 7.808 4 8.258 8.7H57.108zm29.63 3.1h20.521c.05-.6.05-1 .05-1.35 0-7.6-4.404-13.699-12.062-13.699-7.157 0-12.412 6-12.412 13.5 0 8.05 5.806 13.5 12.913 13.5 4.905 0 8.058-1.95 10.661-4.85l-2.402-2.15c-2.102 2.2-4.604 3.65-8.158 3.65-4.557-.001-8.56-3.151-9.111-8.601zm0-3.1c.55-5 3.954-8.7 8.408-8.7 5.105 0 7.808 4 8.258 8.7H86.738zm27.678 14.45h3.854v-36.5h-3.854v36.5zm20.52.55c4.555 0 7.508-2.1 9.31-4.4v3.85h3.804v-15.8c0-3.3-.901-5.8-2.703-7.6-1.852-1.85-4.705-2.85-8.358-2.85-3.804 0-6.557.9-9.41 2.2l1.151 3.15c2.402-1.1 4.805-1.85 7.858-1.85 4.855 0 7.658 2.4 7.658 7v.8c-2.303-.65-4.605-1.1-7.908-1.1-6.557 0-11.061 2.9-11.061 8.45v.1c-.001 5.3 4.804 8.05 9.659 8.05zm.751-3.1c-3.504 0-6.507-1.9-6.507-5.15v-.1c0-3.1 2.753-5.2 7.558-5.2 3.153 0 5.656.55 7.558 1.1v2.4c-.001 4.1-3.855 6.95-8.609 6.95zm20.521 2.55h3.854v-14.8c0-4.85 3.303-8.1 7.758-8.1 4.554 0 7.157 3 7.157 7.8v15.1h3.854v-16.05c0-6.15-3.652-10.35-9.909-10.35-4.455 0-7.157 2.25-8.859 5.05v-4.5h-3.854v25.85zm42.493.599c4.854 0 7.957-2.1 10.561-5l-2.453-2.3c-2.052 2.2-4.604 3.85-7.907 3.85-5.405 0-9.51-4.45-9.51-10.05v-.1c0-5.55 4.004-10 9.259-10 3.504 0 5.807 1.75 7.858 3.9l2.553-2.7c-2.403-2.55-5.456-4.6-10.36-4.6-7.558 0-13.264 6.2-13.264 13.5v.1c-.001 7.251 5.705 13.4 13.263 13.4zm18.468-11.949h20.521c.05-.6.05-1 .05-1.35 0-7.6-4.404-13.699-12.063-13.699-7.156 0-12.412 6-12.412 13.5 0 8.05 5.807 13.5 12.913 13.5 4.905 0 8.058-1.95 10.661-4.85l-2.402-2.15c-2.103 2.2-4.605 3.65-8.158 3.65-4.555-.001-8.559-3.151-9.11-8.601zm0-3.1c.551-5 3.954-8.7 8.408-8.7 5.105 0 7.809 4 8.258 8.7h-16.666z" fill="#5C175F"/><path d="M0 85.576h6.307l3.604-8.45h16.566l3.554 8.45h6.506L21.121 50.327h-5.706L0 85.576zm12.162-13.899l6.006-14 6.056 14H12.162zm44.495 14.499c6.556 0 10.561-2.399 14.214-6.2l-3.954-4c-3.003 2.801-5.756 4.551-10.06 4.551-6.707 0-11.562-5.6-11.562-12.45v-.101c0-6.85 4.855-12.35 11.562-12.35 4.004 0 7.007 1.75 9.81 4.351l3.954-4.55c-3.354-3.2-7.257-5.45-13.714-5.45-10.61 0-18.068 8.149-18.068 18.1v.101c0 10.048 7.608 17.998 17.818 17.998zm17.668-.6h6.306l3.604-8.45h16.566l3.554 8.45h6.506L95.446 50.327H89.74L74.325 85.576zm12.162-13.899l6.006-14 6.056 14H86.487zm30.381 13.899h13.063c11.011 0 18.618-7.649 18.618-17.5v-.101c0-9.85-7.607-17.398-18.618-17.398h-13.063v34.999zm6.156-5.6V56.177h6.907c7.357 0 12.162 5.05 12.162 11.899v.101c0 6.85-4.805 11.799-12.162 11.799h-6.907zm32.984 5.6h26.226v-5.5h-20.07v-9.399h17.568v-5.5h-17.568v-9.1h19.82v-5.5h-25.976v34.999zm33.534 0h6.056v-25l10.961 16.399h.201l11.061-16.499v25.1h6.156V50.577h-6.557l-10.66 16.549-10.661-16.549h-6.557v34.999zm53.754 0h6.205v-13.95l13.914-21.049h-7.057l-9.91 15.499-9.81-15.499h-7.257l13.914 21.199v13.8zm67.724 3.431l22.428-49.646-50.535 19.67 17.349 7.025-10.889 10.336 4.801 5.124 10.878-10.348 5.968 17.839z" fill="#FFAB17"/><path fill="#5C175F" d="M340.289.007l.007-.007-77.098 29.843 22.032 3.814h.001l44.188-25.466-37.453 30.41-9.077 16.613 12.21-12.228 14.525 20.337L340.297 0l-.008.007z"/></svg>